<svg width="17" height="17" viewBox="0 0 17 17" fill="none" xmlns="http://www.w3.org/2000/svg">
<path d="M14.0179 10.5754C12.5587 12.0275 10.4692 12.4738 8.63457 11.9L5.29833 15.2292C5.05749 15.4771 4.58291 15.6259 4.24291 15.5763L2.69874 15.3638C2.18874 15.2929 1.71416 14.8113 1.63624 14.3013L1.42374 12.7571C1.37416 12.4171 1.53708 11.9425 1.77083 11.7017L5.09999 8.37252C4.53332 6.53085 4.97249 4.44127 6.43166 2.98918C8.52124 0.899601 11.9142 0.899601 14.0108 2.98918C16.1075 5.07877 16.1075 8.48585 14.0179 10.5754Z" stroke="#151940" stroke-width="1.5" stroke-miterlimit="10" stroke-linecap="round" stroke-linejoin="round"/>
<path d="M4.8804 12.3887L6.50957 14.0179" stroke="#151940" stroke-width="1.5" stroke-miterlimit="10" stroke-linecap="round" stroke-linejoin="round"/>
<path d="M10.2708 7.79169C10.8576 7.79169 11.3333 7.31599 11.3333 6.72919C11.3333 6.14238 10.8576 5.66669 10.2708 5.66669C9.68404 5.66669 9.20834 6.14238 9.20834 6.72919C9.20834 7.31599 9.68404 7.79169 10.2708 7.79169Z" stroke="#151940" stroke-width="1.5" stroke-linecap="round" stroke-linejoin="round"/>
</svg>
